<svg width="40" height="40" viewBox="0 0 40 40" fill="none" xmlns="http://www.w3.org/2000/svg">
<path d="M36.6673 21.666C36.6673 29.9503 36.6673 36.666 20.0007 36.666C3.33398 36.666 3.33398 29.9503 3.33398 21.666C3.33398 13.3817 8.59714 6.66602 20.0007 6.66602C31.4042 6.66602 36.6673 13.3817 36.6673 21.666Z" fill="#8BABE2"/>
<circle cx="8.33398" cy="10" r="5" fill="#8BABE2"/>
<circle cx="31.666" cy="10" r="5" fill="#8BABE2"/>
<path d="M10 29.0734C10 24.9824 13.3164 21.666 17.4074 21.666H22.5926C26.6836 21.666 30 24.9824 30 29.0734V29.0734C30 32.3462 27.3469 34.9993 24.0741 34.9993H15.9259C12.6531 34.9993 10 32.3462 10 29.0734V29.0734Z" fill="#EDE2C6"/>
<path d="M10 9.16602C7.5 11.666 10 9.16602 7.5 11.666C6.11929 11.666 5 10.5467 5 9.16602C5 7.7853 6.11929 6.66602 7.5 6.66602C8.88071 6.66602 10 7.7853 10 9.16602Z" fill="#9E4D4D"/>
<path d="M35 9.16602C35 10.5467 33.8807 11.666 32.5 11.666C30 9.16602 32.5 11.666 30 9.16602C30 7.7853 31.1193 6.66602 32.5 6.66602C33.8807 6.66602 35 7.7853 35 9.16602Z" fill="#9E4D4D"/>
<rect x="13.334" y="11.666" width="3.33333" height="3.33333" rx="1.66667" fill="#EDE2C6"/>
<rect x="23.334" y="11.666" width="3.33333" height="3.33333" rx="1.66667" fill="#EDE2C6"/>
<circle cx="20" cy="25" r="2.5" fill="black"/>
<rect x="19.166" y="26.666" width="1.66667" height="3.33333" fill="black"/>
<rect x="11.666" y="16.666" width="6.66667" height="3.33333" rx="1.66667" fill="black"/>
<rect x="21.666" y="16.666" width="6.66667" height="3.33333" rx="1.66667" fill="black"/>
<path d="M13.334 29.334C13.334 28.7817 13.7817 28.334 14.334 28.334H25.6673C26.2196 28.334 26.6673 28.7817 26.6673 29.334V29.334C26.6673 31.5431 24.8765 33.334 22.6673 33.334H17.334C15.1248 33.334 13.334 31.5431 13.334 29.334V29.334Z" fill="#9E4D4D"/>
<ellipse cx="10.8327" cy="24.9993" rx="4.16667" ry="3.33333" fill="#BD3D3D" fill-opacity="0.7"/>
<ellipse cx="29.1667" cy="24.9993" rx="4.16667" ry="3.33333" fill="#BD3D3D" fill-opacity="0.7"/>
</svg>
