<svg width="300" height="165" viewBox="0 0 300 165" fill="none" xmlns="http://www.w3.org/2000/svg">
<rect width="300" height="165" fill="url(#paint0_linear_1663_1166)"/>
<path d="M99 63.5158C94.4425 75.2014 85.5017 72.7956 68.8506 72.7956C52.1995 72.7956 38.7012 72.0576 38.7012 63.5158C38.7012 54.9741 52.1995 52.8613 68.8506 52.8613C85.5017 52.8613 99 54.9741 99 63.5158Z" fill="white"/>
<path d="M61.5794 62.6462C64.6437 76.2216 73.9196 72.1877 49.7897 72.1877C43.2784 72.1877 38 69.5703 38 64.6106C38 59.651 43.2784 53.666 49.7897 53.666C56.301 53.666 61.5794 57.6866 61.5794 62.6462Z" fill="white"/>
<path d="M57.4927 53.1948C57.4927 55.1587 58.7993 60.0334 53.4258 58.2553C48.0511 60.0334 49.3589 55.1587 49.3589 53.1948C49.3589 51.2308 51.1797 49.6387 53.4258 49.6387C55.6718 49.6387 57.4927 51.2308 57.4927 53.1948Z" fill="white"/>
<path d="M75.1615 61.7986C75.1615 66.8227 66.7569 62.1941 63.0117 62.1941C59.2665 62.1941 56.2305 58.1212 56.2305 53.097C56.2305 48.0729 59.2665 44 63.0117 44C76.5638 44 75.1615 56.7744 75.1615 61.7986Z" fill="white"/>
<path d="M87.7806 67.4372C87.7806 72.4614 79.3761 67.8328 75.6309 67.8328C71.8857 67.8328 68.8496 63.7599 68.8496 58.7357C68.8496 53.7116 71.8857 49.6387 75.6309 49.6387C89.1829 49.6387 87.7806 62.4131 87.7806 67.4372Z" fill="white"/>
<ellipse cx="150" cy="138.397" rx="150" ry="19.3966" fill="#5F8D4E"/>
<rect y="138.139" width="300" height="25.8621" fill="#5F8D4E"/>
<g clip-path="url(#clip0_1663_1166)">
<path d="M152.809 102H148.809C143.286 102 138.809 106.477 138.809 112V120C138.809 125.523 143.286 130 148.809 130H152.809C158.331 130 162.809 125.523 162.809 120V112C162.809 106.477 158.331 102 152.809 102Z" fill="#6372F3"/>
<path d="M144.809 116H142.809C140.599 116 138.809 117.791 138.809 120V134C138.809 136.209 140.599 138 142.809 138H144.809C147.018 138 148.809 136.209 148.809 134V120C148.809 117.791 147.018 116 144.809 116Z" fill="#6372F3"/>
<path d="M158.809 116H156.809C154.599 116 152.809 117.791 152.809 120V134C152.809 136.209 154.599 138 156.809 138H158.809C161.018 138 162.809 136.209 162.809 134V120C162.809 117.791 161.018 116 158.809 116Z" fill="#6372F3"/>
<path d="M154.213 106.99L154.078 108.986C153.929 111.19 155.595 113.097 157.799 113.246L163.786 113.651C165.99 113.8 167.898 112.134 168.047 109.93L168.182 107.935C168.331 105.731 166.665 103.823 164.461 103.674L158.474 103.269C156.27 103.12 154.363 104.786 154.213 106.99Z" fill="#6372F3"/>
<path d="M136.09 98.2945L134.394 99.3532C132.519 100.523 131.948 102.99 133.117 104.864L139.104 114.458C140.273 116.332 142.74 116.903 144.615 115.734L146.311 114.675C148.186 113.506 148.757 111.038 147.588 109.164L141.601 99.5705C140.432 97.6963 137.965 97.125 136.09 98.2945Z" fill="#6372F3"/>
<path d="M140.809 112.5C140.809 107.253 145.062 103 150.309 103C155.555 103 159.809 107.253 159.809 112.5V121C159.809 124.314 157.122 127 153.809 127H146.809C143.495 127 140.809 124.314 140.809 121V112.5Z" fill="#EDE2C6"/>
<path d="M160.809 96C160.809 100.971 160.809 105 150.809 105C140.809 105 140.809 100.971 140.809 96C140.809 91.0294 143.967 87 150.809 87C157.651 87 160.809 91.0294 160.809 96Z" fill="#6372F3"/>
<path d="M143.809 92C145.465 92 146.809 90.6569 146.809 89C146.809 87.3431 145.465 86 143.809 86C142.152 86 140.809 87.3431 140.809 89C140.809 90.6569 142.152 92 143.809 92Z" fill="#6372F3"/>
<path d="M157.809 92C159.465 92 160.809 90.6569 160.809 89C160.809 87.3431 159.465 86 157.809 86C156.152 86 154.809 87.3431 154.809 89C154.809 90.6569 156.152 92 157.809 92Z" fill="#6372F3"/>
<path d="M144.809 100.444C144.809 97.9898 146.798 96 149.253 96H152.364C154.819 96 156.809 97.9898 156.809 100.444C156.809 102.408 155.217 104 153.253 104H148.364C146.4 104 144.809 102.408 144.809 100.444Z" fill="#EDE2C6"/>
<path d="M144.809 88.5C143.309 90 144.809 88.5 143.309 90C142.48 90 141.809 89.3284 141.809 88.5C141.809 87.6716 142.48 87 143.309 87C144.137 87 144.809 87.6716 144.809 88.5Z" fill="#9E4D4D"/>
<path d="M159.809 88.5C159.809 89.3284 159.137 90 158.309 90C156.809 88.5 158.309 90 156.809 88.5C156.809 87.6716 157.48 87 158.309 87C159.137 87 159.809 87.6716 159.809 88.5Z" fill="#9E4D4D"/>
<path d="M148.809 91C148.809 90.4477 148.361 90 147.809 90C147.256 90 146.809 90.4477 146.809 91C146.809 91.5523 147.256 92 147.809 92C148.361 92 148.809 91.5523 148.809 91Z" fill="#EDE2C6"/>
<path d="M154.809 91C154.809 90.4477 154.361 90 153.809 90C153.256 90 152.809 90.4477 152.809 91C152.809 91.5523 153.256 92 153.809 92C154.361 92 154.809 91.5523 154.809 91Z" fill="#EDE2C6"/>
<path d="M150.809 99.5C151.637 99.5 152.309 98.8284 152.309 98C152.309 97.1716 151.637 96.5 150.809 96.5C149.98 96.5 149.309 97.1716 149.309 98C149.309 98.8284 149.98 99.5 150.809 99.5Z" fill="black"/>
<path d="M151.309 99H150.309V101H151.309V99Z" fill="black"/>
<path d="M148.809 93H146.809C146.256 93 145.809 93.4477 145.809 94C145.809 94.5523 146.256 95 146.809 95H148.809C149.361 95 149.809 94.5523 149.809 94C149.809 93.4477 149.361 93 148.809 93Z" fill="black"/>
<path d="M154.809 93H152.809C152.256 93 151.809 93.4477 151.809 94C151.809 94.5523 152.256 95 152.809 95H154.809C155.361 95 155.809 94.5523 155.809 94C155.809 93.4477 155.361 93 154.809 93Z" fill="black"/>
<path d="M146.809 100.6C146.809 100.269 147.077 100 147.409 100H154.209C154.54 100 154.809 100.269 154.809 100.6C154.809 101.926 153.734 103 152.409 103H149.209C147.883 103 146.809 101.926 146.809 100.6Z" fill="#9E4D4D"/>
<path d="M145.309 100C146.689 100 147.809 99.1046 147.809 98C147.809 96.8954 146.689 96 145.309 96C143.928 96 142.809 96.8954 142.809 98C142.809 99.1046 143.928 100 145.309 100Z" fill="#BD3D3D" fill-opacity="0.7"/>
<path d="M156.309 100C157.689 100 158.809 99.1046 158.809 98C158.809 96.8954 157.689 96 156.309 96C154.928 96 153.809 96.8954 153.809 98C153.809 99.1046 154.928 100 156.309 100Z" fill="#BD3D3D" fill-opacity="0.7"/>
</g>
<g clip-path="url(#clip1_1663_1166)">
<path d="M97.8086 112H93.8086C88.2857 112 83.8086 116.477 83.8086 122V130C83.8086 135.523 88.2857 140 93.8086 140H97.8086C103.331 140 107.809 135.523 107.809 130V122C107.809 116.477 103.331 112 97.8086 112Z" fill="#A59E63"/>
<path d="M89.8086 126H87.8086C85.5995 126 83.8086 127.791 83.8086 130V144C83.8086 146.209 85.5995 148 87.8086 148H89.8086C92.0177 148 93.8086 146.209 93.8086 144V130C93.8086 127.791 92.0177 126 89.8086 126Z" fill="#A59E63"/>
<path d="M103.809 126H101.809C99.5995 126 97.8086 127.791 97.8086 130V144C97.8086 146.209 99.5995 148 101.809 148H103.809C106.018 148 107.809 146.209 107.809 144V130C107.809 127.791 106.018 126 103.809 126Z" fill="#A59E63"/>
<path d="M112.104 128.307L113.39 126.775C114.81 125.083 114.589 122.56 112.897 121.14L101.493 111.571C99.8003 110.151 97.2773 110.371 95.8573 112.064L94.5717 113.596C93.1517 115.288 93.3724 117.811 95.0647 119.231L106.469 128.8C108.161 130.22 110.684 130 112.104 128.307Z" fill="#A59E63"/>
<path d="M78.571 127.011L79.8566 128.543C81.2766 130.236 83.7996 130.456 85.4919 129.036L94.7929 121.232C96.4852 119.812 96.706 117.289 95.2859 115.596L94.0004 114.064C92.5804 112.372 90.0573 112.151 88.365 113.571L79.064 121.376C77.3717 122.796 77.151 125.319 78.571 127.011Z" fill="#A59E63"/>
<path d="M85.8086 122.5C85.8086 117.253 90.0619 113 95.3086 113C100.555 113 104.809 117.253 104.809 122.5V131C104.809 134.314 102.122 137 98.8086 137H91.8086C88.4949 137 85.8086 134.314 85.8086 131V122.5Z" fill="#EDE2C6"/>
<path d="M106 106C106 110.971 106 115 96 115C86 115 86 110.971 86 106C86 101.029 89.1579 97 96 97C102.842 97 106 101.029 106 106Z" fill="#A59E63"/>
<path d="M89 102C90.6569 102 92 100.657 92 99C92 97.3431 90.6569 96 89 96C87.3431 96 86 97.3431 86 99C86 100.657 87.3431 102 89 102Z" fill="#A59E63"/>
<path d="M103 102C104.657 102 106 100.657 106 99C106 97.3431 104.657 96 103 96C101.343 96 100 97.3431 100 99C100 100.657 101.343 102 103 102Z" fill="#A59E63"/>
<path d="M90 110.444C90 107.99 91.9898 106 94.4444 106H97.5556C100.01 106 102 107.99 102 110.444C102 112.408 100.408 114 98.4444 114H93.5556C91.5919 114 90 112.408 90 110.444Z" fill="#EDE2C6"/>
<path d="M90 98.5C88.5 100 90 98.5 88.5 100C87.6716 100 87 99.3284 87 98.5C87 97.6716 87.6716 97 88.5 97C89.3284 97 90 97.6716 90 98.5Z" fill="#9E4D4D"/>
<path d="M105 98.5C105 99.3284 104.328 100 103.5 100C102 98.5 103.5 100 102 98.5C102 97.6716 102.672 97 103.5 97C104.328 97 105 97.6716 105 98.5Z" fill="#9E4D4D"/>
<path d="M94 101C94 100.448 93.5523 100 93 100C92.4477 100 92 100.448 92 101C92 101.552 92.4477 102 93 102C93.5523 102 94 101.552 94 101Z" fill="#EDE2C6"/>
<path d="M94 103H92C91.4477 103 91 103.448 91 104C91 104.552 91.4477 105 92 105H94C94.5523 105 95 104.552 95 104C95 103.448 94.5523 103 94 103Z" fill="black"/>
<path d="M100 101C100 100.448 99.5523 100 99 100C98.4477 100 98 100.448 98 101C98 101.552 98.4477 102 99 102C99.5523 102 100 101.552 100 101Z" fill="#EDE2C6"/>
<path d="M100 103H98C97.4477 103 97 103.448 97 104C97 104.552 97.4477 105 98 105H100C100.552 105 101 104.552 101 104C101 103.448 100.552 103 100 103Z" fill="black"/>
<path d="M98.5 111H93.5C93.2239 111 93 111.224 93 111.5C93 111.776 93.2239 112 93.5 112H98.5C98.7761 112 99 111.776 99 111.5C99 111.224 98.7761 111 98.5 111Z" fill="black"/>
<path d="M96 110C96.8284 110 97.5 109.328 97.5 108.5C97.5 107.672 96.8284 107 96 107C95.1716 107 94.5 107.672 94.5 108.5C94.5 109.328 95.1716 110 96 110Z" fill="black"/>
<path d="M96.5 109H95.5V111H96.5V109Z" fill="black"/>
</g>
<path d="M205.809 112H201.809C196.286 112 191.809 116.477 191.809 122V130C191.809 135.523 196.286 140 201.809 140H205.809C211.331 140 215.809 135.523 215.809 130V122C215.809 116.477 211.331 112 205.809 112Z" fill="#FF4E58"/>
<path d="M197.809 126H195.809C193.599 126 191.809 127.791 191.809 130V144C191.809 146.209 193.599 148 195.809 148H197.809C200.018 148 201.809 146.209 201.809 144V130C201.809 127.791 200.018 126 197.809 126Z" fill="#FF4E58"/>
<path d="M211.809 126H209.809C207.599 126 205.809 127.791 205.809 130V144C205.809 146.209 207.599 148 209.809 148H211.809C214.018 148 215.809 146.209 215.809 144V130C215.809 127.791 214.018 126 211.809 126Z" fill="#FF4E58"/>
<path d="M189.221 104.972L187.481 105.957C185.558 107.045 184.882 109.486 185.971 111.409L191.883 121.851C192.971 123.773 195.412 124.45 197.335 123.361L199.075 122.376C200.997 121.287 201.673 118.847 200.585 116.924L194.673 106.482C193.584 104.559 191.144 103.883 189.221 104.972Z" fill="#FF4E58"/>
<path d="M208.638 122.854L210.458 123.685C212.467 124.603 214.84 123.719 215.758 121.709L220.745 110.795C221.663 108.786 220.779 106.412 218.769 105.494L216.95 104.663C214.941 103.745 212.568 104.63 211.65 106.639L206.663 117.553C205.744 119.563 206.629 121.936 208.638 122.854Z" fill="#FF4E58"/>
<path d="M193.809 122.5C193.809 117.253 198.062 113 203.309 113C208.555 113 212.809 117.253 212.809 122.5V131C212.809 134.314 210.122 137 206.809 137H199.809C196.495 137 193.809 134.314 193.809 131V122.5Z" fill="#EDE2C6"/>
<path d="M214 106C214 110.971 214 115 204 115C194 115 194 110.971 194 106C194 101.029 197.158 97 204 97C210.842 97 214 101.029 214 106Z" fill="#FF4E58"/>
<path d="M197 102C198.657 102 200 100.657 200 99C200 97.3431 198.657 96 197 96C195.343 96 194 97.3431 194 99C194 100.657 195.343 102 197 102Z" fill="#FF4E58"/>
<path d="M211 102C212.657 102 214 100.657 214 99C214 97.3431 212.657 96 211 96C209.343 96 208 97.3431 208 99C208 100.657 209.343 102 211 102Z" fill="#FF4E58"/>
<path d="M198 110.444C198 107.99 199.99 106 202.444 106H205.556C208.01 106 210 107.99 210 110.444C210 112.408 208.408 114 206.444 114H201.556C199.592 114 198 112.408 198 110.444Z" fill="#EDE2C6"/>
<path d="M198 98.5C196.5 100 198 98.5 196.5 100C195.672 100 195 99.3284 195 98.5C195 97.6716 195.672 97 196.5 97C197.328 97 198 97.6716 198 98.5Z" fill="#9E4D4D"/>
<path d="M213 98.5C213 99.3284 212.328 100 211.5 100C210 98.5 211.5 100 210 98.5C210 97.6716 210.672 97 211.5 97C212.328 97 213 97.6716 213 98.5Z" fill="#9E4D4D"/>
<path d="M202 101C202 100.448 201.552 100 201 100C200.448 100 200 100.448 200 101C200 101.552 200.448 102 201 102C201.552 102 202 101.552 202 101Z" fill="#EDE2C6"/>
<path d="M202.33 103.516L200.518 102.671C200.017 102.437 199.422 102.654 199.189 103.154C198.955 103.655 199.172 104.25 199.672 104.483L201.485 105.329C201.986 105.562 202.581 105.345 202.814 104.845C203.047 104.344 202.831 103.749 202.33 103.516Z" fill="black"/>
<path d="M208 101C208 100.448 207.552 100 207 100C206.448 100 206 100.448 206 101C206 101.552 206.448 102 207 102C207.552 102 208 101.552 208 101Z" fill="#EDE2C6"/>
<path d="M207.485 102.672L205.672 103.517C205.171 103.75 204.955 104.345 205.188 104.846C205.422 105.346 206.017 105.563 206.517 105.329L208.33 104.484C208.83 104.251 209.047 103.656 208.813 103.155C208.58 102.655 207.985 102.438 207.485 102.672Z" fill="black"/>
<path d="M201 111.342C201 111.138 201.131 110.956 201.324 110.892L203.051 110.316C203.667 110.111 204.333 110.111 204.949 110.316L206.676 110.892C206.869 110.956 207 111.138 207 111.342C207 111.666 206.683 111.894 206.376 111.792L204.581 111.194C204.204 111.068 203.796 111.068 203.419 111.194L201.624 111.792C201.317 111.894 201 111.666 201 111.342Z" fill="black"/>
<path d="M204 110C204.828 110 205.5 109.328 205.5 108.5C205.5 107.672 204.828 107 204 107C203.172 107 202.5 107.672 202.5 108.5C202.5 109.328 203.172 110 204 110Z" fill="black"/>
<path d="M204.5 109H203.5V111H204.5V109Z" fill="black"/>
<path d="M274.999 78.8619C268.798 91.3534 256.632 88.7817 233.976 88.7817C211.32 88.7817 192.953 87.9928 192.953 78.8619C192.953 69.7311 211.32 67.4727 233.976 67.4727C256.632 67.4727 274.999 69.7311 274.999 78.8619Z" fill="white"/>
<path d="M224.084 77.9335C228.253 92.4451 240.874 88.133 208.042 88.133C199.182 88.133 192 85.3351 192 80.0334C192 74.7317 199.182 68.334 208.042 68.334C216.901 68.334 224.084 72.6318 224.084 77.9335Z" fill="white"/>
<path d="M218.522 67.8287C218.522 69.9281 220.3 75.1389 212.988 73.2383C205.675 75.1389 207.454 69.9281 207.454 67.8287C207.454 65.7293 209.932 64.0273 212.988 64.0273C216.044 64.0273 218.522 65.7293 218.522 67.8287Z" fill="white"/>
<path d="M242.563 77.0261C242.563 82.3967 231.128 77.4489 226.032 77.4489C220.936 77.4489 216.805 73.0951 216.805 67.7244C216.805 62.3538 220.936 58 226.032 58C244.471 58 242.563 71.6554 242.563 77.0261Z" fill="white"/>
<path d="M259.735 83.0534C259.735 88.424 248.299 83.4762 243.204 83.4762C238.108 83.4762 233.977 79.1224 233.977 73.7518C233.977 68.3811 238.108 64.0273 243.204 64.0273C261.643 64.0273 259.735 77.6827 259.735 83.0534Z" fill="white"/>
<path d="M172 28.4411C169.385 35.2912 164.255 33.8809 154.701 33.8809C145.147 33.8809 137.402 33.4483 137.402 28.4411C137.402 23.4338 145.147 22.1953 154.701 22.1953C164.255 22.1953 172 23.4338 172 28.4411Z" fill="white"/>
<path d="M150.529 27.9303C152.287 35.8882 157.61 33.5236 143.765 33.5236C140.029 33.5236 137 31.9892 137 29.0818C137 26.1745 140.029 22.666 143.765 22.666C147.501 22.666 150.529 25.0229 150.529 27.9303Z" fill="white"/>
<path d="M148.185 22.3893C148.185 23.5406 148.935 26.3981 145.851 25.3558C142.768 26.3981 143.518 23.5406 143.518 22.3893C143.518 21.238 144.563 20.3047 145.851 20.3047C147.14 20.3047 148.185 21.238 148.185 22.3893Z" fill="white"/>
<path d="M158.321 27.4336C158.321 30.3788 153.499 27.6655 151.35 27.6655C149.201 27.6655 147.459 25.2779 147.459 22.3327C147.459 19.3876 149.201 17 151.35 17C159.126 17 158.321 24.4884 158.321 27.4336Z" fill="white"/>
<path d="M165.563 30.7383C165.563 33.6835 160.741 30.9702 158.592 30.9702C156.443 30.9702 154.701 28.5826 154.701 25.6374C154.701 22.6922 156.443 20.3047 158.592 20.3047C166.368 20.3047 165.563 27.7931 165.563 30.7383Z" fill="white"/>
<defs>
<linearGradient id="paint0_linear_1663_1166" x1="150" y1="0" x2="150" y2="165" gradientUnits="userSpaceOnUse">
<stop stop-color="#9EC1FC"/>
<stop offset="1" stop-color="#CCE1F5"/>
</linearGradient>
<clipPath id="clip0_1663_1166">
<rect width="38" height="55" fill="white" transform="translate(131 83)"/>
</clipPath>
<clipPath id="clip1_1663_1166">
<rect width="40" height="55" fill="white" transform="translate(76 93)"/>
</clipPath>
</defs>
</svg>
