<svg width="130" height="165" viewBox="0 0 130 165" fill="none" xmlns="http://www.w3.org/2000/svg">
<g clip-path="url(#clip0_1668_1037)">
<rect width="130" height="165" fill="url(#paint0_linear_1668_1037)"/>
<path d="M33 62.5158C28.4425 74.2014 19.5017 71.7956 2.8506 71.7956C-13.8005 71.7956 -27.2988 71.0576 -27.2988 62.5158C-27.2988 53.9741 -13.8005 51.8613 2.8506 51.8613C19.5017 51.8613 33 53.9741 33 62.5158Z" fill="white"/>
<path d="M-4.42055 61.6462C-1.35632 75.2216 7.91964 71.1877 -16.2103 71.1877C-22.7216 71.1877 -28 68.5703 -28 63.6106C-28 58.651 -22.7216 52.666 -16.2103 52.666C-9.69899 52.666 -4.42055 56.6866 -4.42055 61.6462Z" fill="white"/>
<path d="M9.1615 60.7986C9.1615 65.8227 0.756924 61.1941 -2.98827 61.1941C-6.73346 61.1941 -9.76953 57.1212 -9.76953 52.097C-9.76953 47.0729 -6.73346 43 -2.98827 43C10.5638 43 9.1615 55.7744 9.1615 60.7986Z" fill="white"/>
<path d="M21.7806 66.4372C21.7806 71.4614 13.3761 66.8328 9.63087 66.8328C5.88569 66.8328 2.84961 62.7599 2.84961 57.7357C2.84961 52.7116 5.88569 48.6387 9.63087 48.6387C23.1829 48.6387 21.7806 61.4131 21.7806 66.4372Z" fill="white"/>
<ellipse cx="67" cy="139.397" rx="150" ry="19.3966" fill="#5F8D4E"/>
<rect x="-83" y="139.139" width="300" height="25.8621" fill="#5F8D4E"/>
<g clip-path="url(#clip1_1668_1037)">
<path d="M43.8086 102H39.8086C34.2857 102 29.8086 106.477 29.8086 112V120C29.8086 125.523 34.2857 130 39.8086 130H43.8086C49.3314 130 53.8086 125.523 53.8086 120V112C53.8086 106.477 49.3314 102 43.8086 102Z" fill="#6372F3"/>
<path d="M35.8086 116H33.8086C31.5995 116 29.8086 117.791 29.8086 120V134C29.8086 136.209 31.5995 138 33.8086 138H35.8086C38.0177 138 39.8086 136.209 39.8086 134V120C39.8086 117.791 38.0177 116 35.8086 116Z" fill="#6372F3"/>
<path d="M49.8086 116H47.8086C45.5995 116 43.8086 117.791 43.8086 120V134C43.8086 136.209 45.5995 138 47.8086 138H49.8086C52.0177 138 53.8086 136.209 53.8086 134V120C53.8086 117.791 52.0177 116 49.8086 116Z" fill="#6372F3"/>
<path d="M45.2134 106.99L45.0785 108.986C44.9294 111.19 46.5954 113.097 48.7995 113.246L54.7858 113.651C56.9899 113.8 58.8975 112.134 59.0466 109.93L59.1815 107.935C59.3306 105.731 57.6647 103.823 55.4606 103.674L49.4742 103.269C47.2701 103.12 45.3625 104.786 45.2134 106.99Z" fill="#6372F3"/>
<path d="M27.0903 98.2945L25.3936 99.3532C23.5193 100.523 22.948 102.99 24.1175 104.864L30.1036 114.458C31.2731 116.332 33.7405 116.903 35.6147 115.734L37.3115 114.675C39.1857 113.506 39.757 111.038 38.5875 109.164L32.6014 99.5705C31.4319 97.6963 28.9645 97.125 27.0903 98.2945Z" fill="#6372F3"/>
<path d="M31.8086 112.5C31.8086 107.253 36.0619 103 41.3086 103C46.5553 103 50.8086 107.253 50.8086 112.5V121C50.8086 124.314 48.1223 127 44.8086 127H37.8086C34.4949 127 31.8086 124.314 31.8086 121V112.5Z" fill="#EDE2C6"/>
<path d="M51.8086 96C51.8086 100.971 51.8086 105 41.8086 105C31.8086 105 31.8086 100.971 31.8086 96C31.8086 91.0294 34.9665 87 41.8086 87C48.6507 87 51.8086 91.0294 51.8086 96Z" fill="#6372F3"/>
<path d="M34.8086 92C36.4654 92 37.8086 90.6569 37.8086 89C37.8086 87.3431 36.4654 86 34.8086 86C33.1517 86 31.8086 87.3431 31.8086 89C31.8086 90.6569 33.1517 92 34.8086 92Z" fill="#6372F3"/>
<path d="M48.8086 92C50.4654 92 51.8086 90.6569 51.8086 89C51.8086 87.3431 50.4654 86 48.8086 86C47.1517 86 45.8086 87.3431 45.8086 89C45.8086 90.6569 47.1517 92 48.8086 92Z" fill="#6372F3"/>
<path d="M35.8086 100.444C35.8086 97.9898 37.7984 96 40.253 96H43.3641C45.8187 96 47.8086 97.9898 47.8086 100.444C47.8086 102.408 46.2167 104 44.253 104H39.3641C37.4005 104 35.8086 102.408 35.8086 100.444Z" fill="#EDE2C6"/>
<path d="M35.8086 88.5C34.3086 90 35.8086 88.5 34.3086 90C33.4802 90 32.8086 89.3284 32.8086 88.5C32.8086 87.6716 33.4802 87 34.3086 87C35.137 87 35.8086 87.6716 35.8086 88.5Z" fill="#9E4D4D"/>
<path d="M50.8086 88.5C50.8086 89.3284 50.137 90 49.3086 90C47.8086 88.5 49.3086 90 47.8086 88.5C47.8086 87.6716 48.4802 87 49.3086 87C50.137 87 50.8086 87.6716 50.8086 88.5Z" fill="#9E4D4D"/>
<path d="M39.8086 91C39.8086 90.4477 39.3609 90 38.8086 90C38.2563 90 37.8086 90.4477 37.8086 91C37.8086 91.5523 38.2563 92 38.8086 92C39.3609 92 39.8086 91.5523 39.8086 91Z" fill="#EDE2C6"/>
<path d="M45.8086 91C45.8086 90.4477 45.3609 90 44.8086 90C44.2563 90 43.8086 90.4477 43.8086 91C43.8086 91.5523 44.2563 92 44.8086 92C45.3609 92 45.8086 91.5523 45.8086 91Z" fill="#EDE2C6"/>
<path d="M41.8086 99.5C42.637 99.5 43.3086 98.8284 43.3086 98C43.3086 97.1716 42.637 96.5 41.8086 96.5C40.9802 96.5 40.3086 97.1716 40.3086 98C40.3086 98.8284 40.9802 99.5 41.8086 99.5Z" fill="black"/>
<path d="M42.3086 99H41.3086V101H42.3086V99Z" fill="black"/>
<path d="M39.8086 93H37.8086C37.2563 93 36.8086 93.4477 36.8086 94C36.8086 94.5523 37.2563 95 37.8086 95H39.8086C40.3609 95 40.8086 94.5523 40.8086 94C40.8086 93.4477 40.3609 93 39.8086 93Z" fill="black"/>
<path d="M45.8086 93H43.8086C43.2563 93 42.8086 93.4477 42.8086 94C42.8086 94.5523 43.2563 95 43.8086 95H45.8086C46.3609 95 46.8086 94.5523 46.8086 94C46.8086 93.4477 46.3609 93 45.8086 93Z" fill="black"/>
<path d="M37.8086 100.6C37.8086 100.269 38.0772 100 38.4086 100H45.2086C45.54 100 45.8086 100.269 45.8086 100.6C45.8086 101.926 44.7341 103 43.4086 103H40.2086C38.8831 103 37.8086 101.926 37.8086 100.6Z" fill="#9E4D4D"/>
<path d="M36.3086 100C37.6893 100 38.8086 99.1046 38.8086 98C38.8086 96.8954 37.6893 96 36.3086 96C34.9279 96 33.8086 96.8954 33.8086 98C33.8086 99.1046 34.9279 100 36.3086 100Z" fill="#BD3D3D" fill-opacity="0.7"/>
<path d="M47.3086 100C48.6893 100 49.8086 99.1046 49.8086 98C49.8086 96.8954 48.6893 96 47.3086 96C45.9279 96 44.8086 96.8954 44.8086 98C44.8086 99.1046 45.9279 100 47.3086 100Z" fill="#BD3D3D" fill-opacity="0.7"/>
</g>
<path d="M168.999 62.8619C162.798 75.3534 150.632 72.7817 127.976 72.7817C105.32 72.7817 86.9531 71.9928 86.9531 62.8619C86.9531 53.7311 105.32 51.4727 127.976 51.4727C150.632 51.4727 168.999 53.7311 168.999 62.8619Z" fill="white"/>
<path d="M118.084 61.9335C122.253 76.4451 134.874 72.133 102.042 72.133C93.1821 72.133 86 69.3351 86 64.0334C86 58.7317 93.1821 52.334 102.042 52.334C110.901 52.334 118.084 56.6318 118.084 61.9335Z" fill="white"/>
<path d="M112.522 51.8287C112.522 53.9281 114.3 59.1389 106.988 57.2383C99.6749 59.1389 101.454 53.9281 101.454 51.8287C101.454 49.7293 103.932 48.0273 106.988 48.0273C110.044 48.0273 112.522 49.7293 112.522 51.8287Z" fill="white"/>
<path d="M136.563 61.0261C136.563 66.3967 125.128 61.4489 120.032 61.4489C114.936 61.4489 110.805 57.0951 110.805 51.7244C110.805 46.3538 114.936 42 120.032 42C138.471 42 136.563 55.6554 136.563 61.0261Z" fill="white"/>
<path d="M153.735 67.0534C153.735 72.424 142.299 67.4762 137.204 67.4762C132.108 67.4762 127.977 63.1224 127.977 57.7518C127.977 52.3811 132.108 48.0273 137.204 48.0273C155.643 48.0273 153.735 61.6827 153.735 67.0534Z" fill="white"/>
<path d="M81 37.4411C78.3851 44.2912 73.2551 42.8809 63.7012 42.8809C54.1473 42.8809 46.4023 42.4483 46.4023 37.4411C46.4023 32.4338 54.1473 31.1953 63.7012 31.1953C73.2551 31.1953 81 32.4338 81 37.4411Z" fill="white"/>
<path d="M59.5292 36.9303C61.2874 44.8882 66.6096 42.5236 52.7646 42.5236C49.0286 42.5236 46 40.9892 46 38.0818C46 35.1745 49.0286 31.666 52.7646 31.666C56.5006 31.666 59.5292 34.0229 59.5292 36.9303Z" fill="white"/>
<path d="M57.1848 31.3893C57.1848 32.5406 57.9345 35.3981 54.8514 34.3558C51.7675 35.3981 52.5179 32.5406 52.5179 31.3893C52.5179 30.238 53.5626 29.3047 54.8514 29.3047C56.1401 29.3047 57.1848 30.238 57.1848 31.3893Z" fill="white"/>
<path d="M67.3211 36.4336C67.3211 39.3788 62.4988 36.6655 60.3499 36.6655C58.201 36.6655 56.459 34.2779 56.459 31.3327C56.459 28.3876 58.201 26 60.3499 26C68.1257 26 67.3211 33.4884 67.3211 36.4336Z" fill="white"/>
<path d="M74.5632 39.7383C74.5632 42.6835 69.7409 39.9702 67.5921 39.9702C65.4432 39.9702 63.7012 37.5826 63.7012 34.6374C63.7012 31.6922 65.4432 29.3047 67.5921 29.3047C75.3678 29.3047 74.5632 36.7931 74.5632 39.7383Z" fill="white"/>
<rect x="77.8086" y="102" width="24" height="28" rx="10" fill="#6A471D"/>
<rect x="77.8086" y="116" width="10" height="22" rx="4" fill="#6A471D"/>
<rect x="91.8086" y="116" width="10" height="22" rx="4" fill="#6A471D"/>
<rect x="92.8086" y="112.977" width="10" height="14" rx="4" transform="rotate(-86.131 92.8086 112.977)" fill="#6A471D"/>
<rect x="70" y="101.471" width="10" height="19.308" rx="4" transform="rotate(-31.9631 70 101.471)" fill="#6A471D"/>
<path d="M79.8086 112.5C79.8086 107.253 84.0619 103 89.3086 103V103C94.5553 103 98.8086 107.253 98.8086 112.5V121C98.8086 124.314 96.1223 127 92.8086 127H85.8086C82.4949 127 79.8086 124.314 79.8086 121V112.5Z" fill="#EDE2C6"/>
<path d="M99.8086 96C99.8086 100.971 99.8086 105 89.8086 105C79.8086 105 79.8086 100.971 79.8086 96C79.8086 91.0294 82.9665 87 89.8086 87C96.6507 87 99.8086 91.0294 99.8086 96Z" fill="#6A471D"/>
<circle cx="82.8086" cy="89" r="3" fill="#6A471D"/>
<circle cx="96.8086" cy="89" r="3" fill="#6A471D"/>
<path d="M83.8086 100.444C83.8086 97.9898 85.7984 96 88.253 96H91.3641C93.8187 96 95.8086 97.9898 95.8086 100.444V100.444C95.8086 102.408 94.2167 104 92.253 104H87.3641C85.4005 104 83.8086 102.408 83.8086 100.444V100.444Z" fill="#EDE2C6"/>
<path d="M83.8086 88.5C82.3086 90 83.8086 88.5 82.3086 90C81.4802 90 80.8086 89.3284 80.8086 88.5C80.8086 87.6716 81.4802 87 82.3086 87C83.137 87 83.8086 87.6716 83.8086 88.5Z" fill="#9E4D4D"/>
<path d="M98.8086 88.5C98.8086 89.3284 98.137 90 97.3086 90C95.8086 88.5 97.3086 90 95.8086 88.5C95.8086 87.6716 96.4802 87 97.3086 87C98.137 87 98.8086 87.6716 98.8086 88.5Z" fill="#9E4D4D"/>
<rect x="85.8086" y="90" width="2" height="2" rx="1" fill="#EDE2C6"/>
<rect x="91.8086" y="90" width="2" height="2" rx="1" fill="#EDE2C6"/>
<circle cx="89.8086" cy="98" r="1.5" fill="black"/>
<rect x="89.3086" y="99" width="1" height="2" fill="black"/>
<rect x="84.8086" y="93" width="4" height="2" rx="1" fill="black"/>
<rect x="90.8086" y="93" width="4" height="2" rx="1" fill="black"/>
<path d="M85.8086 100.6C85.8086 100.269 86.0772 100 86.4086 100H93.2086C93.54 100 93.8086 100.269 93.8086 100.6V100.6C93.8086 101.925 92.7341 103 91.4086 103H88.2086C86.8831 103 85.8086 101.925 85.8086 100.6V100.6Z" fill="#9E4D4D"/>
<ellipse cx="84.3086" cy="98" rx="2.5" ry="2" fill="#BD3D3D" fill-opacity="0.7"/>
<ellipse cx="95.3086" cy="98" rx="2.5" ry="2" fill="#BD3D3D" fill-opacity="0.7"/>
</g>
<defs>
<linearGradient id="paint0_linear_1668_1037" x1="65" y1="0" x2="65" y2="165" gradientUnits="userSpaceOnUse">
<stop stop-color="#9EC1FC"/>
<stop offset="1" stop-color="#CCE1F5"/>
</linearGradient>
<clipPath id="clip0_1668_1037">
<rect width="130" height="165" fill="white"/>
</clipPath>
<clipPath id="clip1_1668_1037">
<rect width="38" height="55" fill="white" transform="translate(22 83)"/>
</clipPath>
</defs>
</svg>
