<svg width="300" height="165" viewBox="0 0 300 165" fill="none" xmlns="http://www.w3.org/2000/svg">
<rect width="300" height="165" fill="url(#paint0_linear_1668_903)"/>
<path d="M66.152 76V54.1818H70.1044V63.4183H80.2145V54.1818H84.1776V76H80.2145V66.7315H70.1044V76H66.152ZM95.5501 76.3196C93.9094 76.3196 92.4925 75.9787 91.2994 75.2969C90.1133 74.608 89.2006 73.6349 88.5614 72.3778C87.9222 71.1136 87.6026 69.6257 87.6026 67.9141C87.6026 66.2308 87.9222 64.7536 88.5614 63.4822C89.2077 62.2038 90.1097 61.2095 91.2674 60.4993C92.4251 59.782 93.7852 59.4233 95.3477 59.4233C96.3562 59.4233 97.3079 59.5866 98.2028 59.9134C99.1048 60.233 99.9002 60.7301 100.589 61.4048C101.285 62.0795 101.832 62.9389 102.23 63.983C102.627 65.0199 102.826 66.2557 102.826 67.6903V68.8729H89.4137V66.2734H99.1296C99.1225 65.5348 98.9627 64.8778 98.6502 64.3026C98.3377 63.7202 97.9009 63.2621 97.3398 62.9283C96.7859 62.5945 96.1396 62.4276 95.4009 62.4276C94.6126 62.4276 93.9201 62.6193 93.3235 63.0028C92.7269 63.3793 92.2617 63.8764 91.9279 64.4943C91.6012 65.1051 91.4343 65.7763 91.4272 66.5078V68.777C91.4272 69.7287 91.6012 70.5455 91.9492 71.2273C92.2972 71.902 92.7837 72.4205 93.4087 72.7827C94.0337 73.1378 94.7653 73.3153 95.6033 73.3153C96.1644 73.3153 96.6722 73.2372 97.1268 73.081C97.5813 72.9176 97.9755 72.6797 98.3093 72.3672C98.6431 72.0547 98.8952 71.6676 99.0657 71.206L102.667 71.6108C102.439 72.5625 102.006 73.3935 101.367 74.1037C100.735 74.8068 99.9251 75.3537 98.9379 75.7443C97.9506 76.1278 96.8214 76.3196 95.5501 76.3196ZM109.945 54.1818V76H106.089V54.1818H109.945ZM117.768 54.1818V76H113.911V54.1818H117.768ZM128.871 76.3196C127.273 76.3196 125.888 75.968 124.716 75.2649C123.545 74.5618 122.635 73.5781 121.989 72.3139C121.35 71.0497 121.03 69.5724 121.03 67.8821C121.03 66.1918 121.35 64.7109 121.989 63.4396C122.635 62.1683 123.545 61.1811 124.716 60.478C125.888 59.7749 127.273 59.4233 128.871 59.4233C130.469 59.4233 131.854 59.7749 133.026 60.478C134.198 61.1811 135.104 62.1683 135.743 63.4396C136.389 64.7109 136.712 66.1918 136.712 67.8821C136.712 69.5724 136.389 71.0497 135.743 72.3139C135.104 73.5781 134.198 74.5618 133.026 75.2649C131.854 75.968 130.469 76.3196 128.871 76.3196ZM128.893 73.2301C129.759 73.2301 130.483 72.9922 131.066 72.5163C131.648 72.0334 132.081 71.3871 132.366 70.5774C132.657 69.7678 132.802 68.8658 132.802 67.8714C132.802 66.87 132.657 65.9645 132.366 65.1548C132.081 64.3381 131.648 63.6882 131.066 63.2053C130.483 62.7223 129.759 62.4808 128.893 62.4808C128.005 62.4808 127.266 62.7223 126.677 63.2053C126.094 63.6882 125.657 64.3381 125.366 65.1548C125.082 65.9645 124.94 66.87 124.94 67.8714C124.94 68.8658 125.082 69.7678 125.366 70.5774C125.657 71.3871 126.094 72.0334 126.677 72.5163C127.266 72.9922 128.005 73.2301 128.893 73.2301ZM144.513 73.017L144.375 74.1889C144.275 75.0838 144.098 75.9929 143.842 76.9162C143.593 77.8466 143.331 78.7024 143.054 79.4837C142.777 80.2649 142.553 80.8793 142.382 81.3267H139.783C139.882 80.8935 140.017 80.304 140.188 79.5582C140.365 78.8125 140.536 77.9744 140.699 77.044C140.863 76.1136 140.973 75.169 141.029 74.2102L141.104 73.017H144.513ZM69.8381 102.412V112H65.9815V90.1818H69.7528V98.4169H69.9446C70.3281 97.4936 70.9212 96.7656 71.7237 96.233C72.5334 95.6932 73.5632 95.4233 74.8132 95.4233C75.9496 95.4233 76.9403 95.6612 77.7855 96.1371C78.6307 96.6129 79.2841 97.3089 79.7457 98.2251C80.2145 99.1413 80.4489 100.26 80.4489 101.581V112H76.5923V102.178C76.5923 101.077 76.3082 100.221 75.7401 99.6101C75.179 98.9922 74.3906 98.6832 73.375 98.6832C72.6932 98.6832 72.0824 98.8324 71.5426 99.1307C71.0099 99.4219 70.5909 99.8445 70.2855 100.398C69.9872 100.952 69.8381 101.624 69.8381 102.412ZM91.5178 112.32C89.9197 112.32 88.5348 111.968 87.3629 111.265C86.1911 110.562 85.282 109.578 84.6357 108.314C83.9964 107.05 83.6768 105.572 83.6768 103.882C83.6768 102.192 83.9964 100.711 84.6357 99.4396C85.282 98.1683 86.1911 97.1811 87.3629 96.478C88.5348 95.7749 89.9197 95.4233 91.5178 95.4233C93.1158 95.4233 94.5007 95.7749 95.6726 96.478C96.8445 97.1811 97.75 98.1683 98.3892 99.4396C99.0355 100.711 99.3587 102.192 99.3587 103.882C99.3587 105.572 99.0355 107.05 98.3892 108.314C97.75 109.578 96.8445 110.562 95.6726 111.265C94.5007 111.968 93.1158 112.32 91.5178 112.32ZM91.5391 109.23C92.4055 109.23 93.13 108.992 93.7124 108.516C94.2947 108.033 94.728 107.387 95.0121 106.577C95.3033 105.768 95.4489 104.866 95.4489 103.871C95.4489 102.87 95.3033 101.964 95.0121 101.155C94.728 100.338 94.2947 99.6882 93.7124 99.2053C93.13 98.7223 92.4055 98.4808 91.5391 98.4808C90.6513 98.4808 89.9126 98.7223 89.3232 99.2053C88.7408 99.6882 88.304 100.338 88.0128 101.155C87.7287 101.964 87.5866 102.87 87.5866 103.871C87.5866 104.866 87.7287 105.768 88.0128 106.577C88.304 107.387 88.7408 108.033 89.3232 108.516C89.9126 108.992 90.6513 109.23 91.5391 109.23ZM109.748 118.477C108.363 118.477 107.174 118.289 106.18 117.913C105.185 117.543 104.386 117.046 103.782 116.421C103.179 115.796 102.76 115.104 102.525 114.344L105.998 113.502C106.155 113.822 106.382 114.138 106.68 114.45C106.979 114.77 107.38 115.033 107.884 115.239C108.395 115.452 109.038 115.558 109.812 115.558C110.906 115.558 111.812 115.292 112.529 114.759C113.246 114.234 113.605 113.367 113.605 112.16V109.06H113.413C113.214 109.457 112.923 109.866 112.54 110.285C112.163 110.704 111.662 111.055 111.037 111.339C110.42 111.624 109.642 111.766 108.704 111.766C107.447 111.766 106.307 111.471 105.285 110.881C104.269 110.285 103.459 109.397 102.856 108.218C102.259 107.032 101.961 105.548 101.961 103.765C101.961 101.968 102.259 100.452 102.856 99.2159C103.459 97.973 104.273 97.032 105.295 96.3928C106.318 95.7464 107.458 95.4233 108.715 95.4233C109.674 95.4233 110.462 95.5866 111.08 95.9134C111.705 96.233 112.202 96.62 112.572 97.0746C112.941 97.522 113.221 97.9446 113.413 98.3423H113.626V95.6364H117.43V112.266C117.43 113.665 117.096 114.823 116.428 115.739C115.76 116.656 114.848 117.341 113.69 117.795C112.532 118.25 111.219 118.477 109.748 118.477ZM109.78 108.74C110.597 108.74 111.293 108.541 111.868 108.143C112.444 107.746 112.881 107.174 113.179 106.428C113.477 105.683 113.626 104.788 113.626 103.744C113.626 102.714 113.477 101.812 113.179 101.038C112.888 100.263 112.454 99.6634 111.879 99.2372C111.311 98.804 110.611 98.5874 109.78 98.5874C108.921 98.5874 108.204 98.8111 107.628 99.2585C107.053 99.706 106.62 100.32 106.329 101.102C106.037 101.876 105.892 102.756 105.892 103.744C105.892 104.745 106.037 105.622 106.329 106.375C106.627 107.121 107.064 107.703 107.639 108.122C108.221 108.534 108.935 108.74 109.78 108.74ZM131.812 105.118V95.6364H135.668V112H131.929V109.092H131.758C131.389 110.008 130.782 110.757 129.937 111.339C129.099 111.922 128.065 112.213 126.836 112.213C125.764 112.213 124.816 111.975 123.992 111.499C123.175 111.016 122.536 110.317 122.074 109.401C121.613 108.477 121.382 107.362 121.382 106.055V95.6364H125.238V105.459C125.238 106.496 125.523 107.32 126.091 107.93C126.659 108.541 127.405 108.847 128.328 108.847C128.896 108.847 129.447 108.708 129.979 108.431C130.512 108.154 130.949 107.742 131.29 107.195C131.638 106.641 131.812 105.949 131.812 105.118ZM139.634 112V95.6364H143.32V98.4169H143.512C143.853 97.4794 144.417 96.7479 145.206 96.2223C145.994 95.6896 146.935 95.4233 148.029 95.4233C149.137 95.4233 150.071 95.6932 150.831 96.233C151.598 96.7656 152.137 97.4936 152.45 98.4169H152.62C152.983 97.5078 153.593 96.7834 154.453 96.2436C155.319 95.6967 156.346 95.4233 157.532 95.4233C159.037 95.4233 160.266 95.8991 161.218 96.8509C162.169 97.8026 162.645 99.1911 162.645 101.016V112H158.778V101.613C158.778 100.597 158.508 99.8551 157.968 99.3864C157.429 98.9105 156.768 98.6726 155.987 98.6726C155.056 98.6726 154.328 98.9638 153.803 99.5462C153.284 100.121 153.025 100.871 153.025 101.794V112H149.243V101.453C149.243 100.608 148.988 99.9332 148.476 99.429C147.972 98.9247 147.311 98.6726 146.495 98.6726C145.941 98.6726 145.436 98.8146 144.982 99.0987C144.527 99.3757 144.165 99.7699 143.895 100.281C143.625 100.786 143.49 101.375 143.49 102.05V112H139.634ZM171.267 112.33C170.23 112.33 169.296 112.146 168.465 111.776C167.641 111.4 166.987 110.846 166.504 110.114C166.029 109.383 165.791 108.481 165.791 107.408C165.791 106.485 165.961 105.722 166.302 105.118C166.643 104.514 167.108 104.031 167.698 103.669C168.287 103.307 168.951 103.033 169.69 102.849C170.436 102.657 171.206 102.518 172.002 102.433C172.96 102.334 173.738 102.245 174.335 102.167C174.931 102.082 175.365 101.954 175.634 101.783C175.911 101.606 176.05 101.332 176.05 100.963V100.899C176.05 100.097 175.812 99.4751 175.336 99.0348C174.86 98.5945 174.175 98.3743 173.28 98.3743C172.335 98.3743 171.586 98.5803 171.032 98.9922C170.485 99.4041 170.116 99.8906 169.924 100.452L166.323 99.9403C166.607 98.946 167.076 98.1151 167.73 97.4474C168.383 96.7727 169.182 96.2685 170.127 95.9347C171.071 95.5938 172.115 95.4233 173.259 95.4233C174.047 95.4233 174.832 95.5156 175.613 95.7003C176.394 95.8849 177.108 96.1903 177.754 96.6165C178.401 97.0355 178.919 97.6072 179.31 98.3317C179.708 99.0561 179.906 99.9616 179.906 101.048V112H176.199V109.752H176.071C175.837 110.207 175.507 110.633 175.08 111.031C174.661 111.421 174.132 111.737 173.493 111.979C172.861 112.213 172.119 112.33 171.267 112.33ZM172.268 109.496C173.042 109.496 173.713 109.344 174.281 109.038C174.85 108.726 175.286 108.314 175.592 107.803C175.904 107.291 176.061 106.734 176.061 106.13V104.202C175.94 104.301 175.734 104.393 175.443 104.479C175.159 104.564 174.839 104.638 174.484 104.702C174.129 104.766 173.777 104.823 173.429 104.873C173.081 104.923 172.779 104.965 172.524 105.001C171.948 105.079 171.433 105.207 170.979 105.384C170.524 105.562 170.166 105.81 169.903 106.13C169.64 106.442 169.509 106.847 169.509 107.344C169.509 108.055 169.768 108.591 170.286 108.953C170.805 109.315 171.465 109.496 172.268 109.496ZM190.922 112.32C189.289 112.32 187.886 111.961 186.714 111.244C185.549 110.526 184.651 109.536 184.019 108.271C183.394 107 183.081 105.537 183.081 103.882C183.081 102.22 183.401 100.754 184.04 99.4822C184.679 98.2038 185.581 97.2095 186.746 96.4993C187.918 95.782 189.303 95.4233 190.901 95.4233C192.229 95.4233 193.404 95.6683 194.427 96.1584C195.457 96.6413 196.277 97.3267 196.888 98.2145C197.499 99.0952 197.847 100.125 197.932 101.304H194.246C194.097 100.516 193.742 99.8587 193.181 99.3331C192.627 98.8004 191.884 98.5341 190.954 98.5341C190.166 98.5341 189.473 98.7472 188.877 99.1733C188.28 99.5923 187.815 100.196 187.481 100.984C187.154 101.773 186.991 102.717 186.991 103.818C186.991 104.933 187.154 105.892 187.481 106.695C187.808 107.49 188.266 108.104 188.855 108.538C189.452 108.964 190.151 109.177 190.954 109.177C191.522 109.177 192.03 109.07 192.477 108.857C192.932 108.637 193.312 108.321 193.617 107.909C193.923 107.497 194.132 106.996 194.246 106.407H197.932C197.84 107.565 197.499 108.591 196.909 109.486C196.32 110.374 195.517 111.07 194.502 111.574C193.486 112.071 192.293 112.32 190.922 112.32ZM204.955 102.412V112H201.099V90.1818H204.87V98.4169H205.062C205.445 97.4936 206.038 96.7656 206.841 96.233C207.651 95.6932 208.68 95.4233 209.93 95.4233C211.067 95.4233 212.058 95.6612 212.903 96.1371C213.748 96.6129 214.401 97.3089 214.863 98.2251C215.332 99.1413 215.566 100.26 215.566 101.581V112H211.71V102.178C211.71 101.077 211.425 100.221 210.857 99.6101C210.296 98.9922 209.508 98.6832 208.492 98.6832C207.81 98.6832 207.2 98.8324 206.66 99.1307C206.127 99.4219 205.708 99.8445 205.403 100.398C205.104 100.952 204.955 101.624 204.955 102.412ZM229.927 105.118V95.6364H233.783V112H230.044V109.092H229.874C229.504 110.008 228.897 110.757 228.052 111.339C227.214 111.922 226.18 112.213 224.952 112.213C223.879 112.213 222.931 111.975 222.107 111.499C221.29 111.016 220.651 110.317 220.19 109.401C219.728 108.477 219.497 107.362 219.497 106.055V95.6364H223.354V105.459C223.354 106.496 223.638 107.32 224.206 107.93C224.774 108.541 225.52 108.847 226.443 108.847C227.011 108.847 227.562 108.708 228.094 108.431C228.627 108.154 229.064 107.742 229.405 107.195C229.753 106.641 229.927 105.949 229.927 105.118Z" fill="white"/>
<defs>
<linearGradient id="paint0_linear_1668_903" x1="150" y1="0" x2="150" y2="165" gradientUnits="userSpaceOnUse">
<stop stop-color="#A3CDFF"/>
<stop offset="1" stop-color="#BED8F7"/>
</linearGradient>
</defs>
</svg>
