<svg width="300" height="165" viewBox="0 0 300 165" fill="none" xmlns="http://www.w3.org/2000/svg">
<rect width="300" height="165" fill="#DEDEDE"/>
<path d="M169.833 75.0879C169.833 85.4432 169.833 93.8379 148.999 93.8379C128.166 93.8379 128.166 85.4432 128.166 75.0879C128.166 64.7326 134.745 56.3379 148.999 56.3379C163.254 56.3379 169.833 64.7326 169.833 75.0879Z" fill="#969696"/>
<ellipse cx="134.416" cy="60.5" rx="6.25" ry="6.25" fill="#969696"/>
<ellipse cx="163.588" cy="60.5" rx="6.25" ry="6.25" fill="#969696"/>
<path d="M136.5 83.4193C136.5 78.8169 140.231 75.0859 144.833 75.0859H153.167C157.769 75.0859 161.5 78.8169 161.5 83.4193V83.4193C161.5 88.0216 157.769 91.7526 153.167 91.7526H144.833C140.231 91.7526 136.5 88.0216 136.5 83.4193V83.4193Z" fill="#EDE2C6"/>
<path d="M136.5 59.4629C133.375 62.5879 136.5 59.4629 133.375 62.5879C131.649 62.5879 130.25 61.1888 130.25 59.4629C130.25 57.737 131.649 56.3379 133.375 56.3379C135.101 56.3379 136.5 57.737 136.5 59.4629Z" fill="#9E4D4D"/>
<path d="M167.752 59.4629C167.752 61.1888 166.353 62.5879 164.627 62.5879C161.502 59.4629 164.627 62.5879 161.502 59.4629C161.502 57.737 162.901 56.3379 164.627 56.3379C166.353 56.3379 167.752 57.737 167.752 59.4629Z" fill="#9E4D4D"/>
<rect x="140.664" y="62.5859" width="4.16667" height="4.16667" rx="2.08333" fill="#EDE2C6"/>
<rect x="153.164" y="62.5859" width="4.16667" height="4.16667" rx="2.08333" fill="#EDE2C6"/>
<ellipse cx="149.002" cy="79.25" rx="3.125" ry="3.125" fill="black"/>
<rect x="147.961" y="81.3379" width="2.08333" height="4.16667" fill="black"/>
<rect x="138.586" y="68.8379" width="8.33333" height="4.16667" rx="2.08333" fill="black"/>
<rect x="151.086" y="68.8379" width="8.33333" height="4.16667" rx="2.08333" fill="black"/>
<path d="M140.664 85.4974C140.664 84.3468 141.597 83.4141 142.747 83.4141H155.247C156.398 83.4141 157.331 84.3468 157.331 85.4974V85.4974C157.331 87.7986 155.465 89.6641 153.164 89.6641H144.831C142.53 89.6641 140.664 87.7986 140.664 85.4974V85.4974Z" fill="#9E4D4D"/>
<ellipse cx="137.546" cy="79.2526" rx="5.20833" ry="4.16667" fill="#BD3D3D" fill-opacity="0.7"/>
<ellipse cx="160.46" cy="79.2526" rx="5.20833" ry="4.16667" fill="#BD3D3D" fill-opacity="0.7"/>
<path d="M122.75 105.62H124.09V114.91H122.75V105.62ZM119.1 106.27C120.5 106.27 121.53 107.55 121.53 109.57C121.53 111.61 120.5 112.89 119.1 112.89C117.7 112.89 116.67 111.61 116.67 109.57C116.67 107.55 117.7 106.27 119.1 106.27ZM119.1 107.48C118.41 107.48 117.94 108.21 117.94 109.57C117.94 110.95 118.41 111.69 119.1 111.69C119.79 111.69 120.25 110.95 120.25 109.57C120.25 108.21 119.79 107.48 119.1 107.48ZM126.059 106.46H130.509V112.69H126.059V106.46ZM129.209 107.5H127.369V111.64H129.209V107.5ZM131.949 105.62H133.289V114.91H131.949V105.62ZM137.028 107.09H138.088V108.13C138.088 110.27 137.218 112.36 135.478 113.15L134.728 112.1C136.278 111.41 137.028 109.7 137.028 108.13V107.09ZM137.328 107.09H138.378V108.13C138.378 109.63 139.118 111.23 140.668 111.87L139.948 112.92C138.188 112.16 137.328 110.19 137.328 108.13V107.09ZM135.098 106.52H140.288V107.61H135.098V106.52ZM141.148 105.63H142.488V114.89H141.148V105.63ZM149.918 105.62H151.258V114.88H149.918V105.62ZM150.908 109.16H152.538V110.25H150.908V109.16ZM147.488 106.58H148.788C148.788 109.36 147.728 111.74 144.648 113.29L143.908 112.28C146.338 111.02 147.488 109.32 147.488 106.81V106.58ZM144.418 106.58H148.168V107.65H144.418V106.58ZM156.697 111.05H157.927V111.96H158.847V111.05H160.077V114.79H156.697V111.05ZM157.927 112.92V113.79H158.847V112.92H157.927ZM161.507 110.98H162.517V111.67C162.517 113.03 161.967 114.35 160.597 114.88L159.947 113.89C161.057 113.43 161.507 112.54 161.507 111.67V110.98ZM161.817 110.98H162.827V111.67C162.827 112.63 163.267 113.51 164.397 113.89L163.737 114.88C162.337 114.38 161.817 113.13 161.817 111.67V110.98ZM160.357 107.61H162.677V108.69H160.357V107.61ZM158.237 105.98C159.627 105.98 160.677 106.88 160.677 108.16C160.677 109.44 159.627 110.35 158.237 110.35C156.837 110.35 155.787 109.44 155.787 108.16C155.787 106.88 156.837 105.98 158.237 105.98ZM158.237 107.07C157.557 107.07 157.057 107.48 157.057 108.16C157.057 108.84 157.557 109.26 158.237 109.26C158.917 109.26 159.407 108.84 159.407 108.16C159.407 107.48 158.917 107.07 158.237 107.07ZM162.097 105.63H163.427V110.53H162.097V105.63ZM167.417 106.27C168.797 106.27 169.807 107.55 169.807 109.57C169.807 111.61 168.797 112.89 167.417 112.89C166.027 112.89 165.027 111.61 165.027 109.57C165.027 107.55 166.027 106.27 167.417 106.27ZM167.417 107.48C166.747 107.48 166.297 108.21 166.297 109.57C166.297 110.95 166.747 111.69 167.417 111.69C168.097 111.69 168.537 110.95 168.537 109.57C168.537 108.21 168.097 107.48 167.417 107.48ZM171.327 105.62H172.647V114.91H171.327V105.62ZM169.417 108.96H171.887V110.03H169.417V108.96ZM175.926 110.33H177.246V112.93H175.926V110.33ZM179.286 110.33H180.616V112.93H179.286V110.33ZM174.086 112.74H182.466V113.82H174.086V112.74ZM178.266 106.08C180.256 106.08 181.726 107.06 181.726 108.57C181.726 110.08 180.256 111.05 178.266 111.05C176.266 111.05 174.806 110.08 174.806 108.57C174.806 107.06 176.266 106.08 178.266 106.08ZM178.266 107.12C176.976 107.12 176.116 107.65 176.116 108.57C176.116 109.48 176.976 110.02 178.266 110.02C179.556 110.02 180.416 109.48 180.416 108.57C180.416 107.65 179.556 107.12 178.266 107.12Z" fill="#959595"/>
</svg>
