<svg width="50" height="50" viewBox="0 0 50 50" fill="none" xmlns="http://www.w3.org/2000/svg">
<path d="M45.8327 27.0879C45.8327 37.4432 45.8327 45.8379 24.9994 45.8379C4.16602 45.8379 4.16602 37.4432 4.16602 27.0879C4.16602 16.7326 10.745 8.33789 24.9994 8.33789C39.2537 8.33789 45.8327 16.7326 45.8327 27.0879Z" fill="#6372F3"/>
<ellipse cx="10.416" cy="12.5" rx="6.25" ry="6.25" fill="#6372F3"/>
<ellipse cx="39.5879" cy="12.5" rx="6.25" ry="6.25" fill="#6372F3"/>
<path d="M12.5 35.4193C12.5 30.8169 16.231 27.0859 20.8333 27.0859H29.1667C33.769 27.0859 37.5 30.8169 37.5 35.4193V35.4193C37.5 40.0216 33.769 43.7526 29.1667 43.7526H20.8333C16.231 43.7526 12.5 40.0216 12.5 35.4193V35.4193Z" fill="#EDE2C6"/>
<path d="M12.5 11.4629C9.375 14.5879 12.5 11.4629 9.375 14.5879C7.64911 14.5879 6.25 13.1888 6.25 11.4629C6.25 9.737 7.64911 8.33789 9.375 8.33789C11.1009 8.33789 12.5 9.737 12.5 11.4629Z" fill="#9E4D4D"/>
<path d="M43.752 11.4629C43.752 13.1888 42.3528 14.5879 40.627 14.5879C37.502 11.4629 40.627 14.5879 37.502 11.4629C37.502 9.737 38.9011 8.33789 40.627 8.33789C42.3528 8.33789 43.752 9.737 43.752 11.4629Z" fill="#9E4D4D"/>
<rect x="16.6641" y="14.5859" width="4.16667" height="4.16667" rx="2.08333" fill="#EDE2C6"/>
<rect x="29.1641" y="14.5859" width="4.16667" height="4.16667" rx="2.08333" fill="#EDE2C6"/>
<ellipse cx="25.002" cy="31.25" rx="3.125" ry="3.125" fill="black"/>
<rect x="23.9609" y="33.3379" width="2.08333" height="4.16667" fill="black"/>
<rect x="14.5859" y="20.8379" width="8.33333" height="4.16667" rx="2.08333" fill="black"/>
<rect x="27.0859" y="20.8379" width="8.33333" height="4.16667" rx="2.08333" fill="black"/>
<path d="M16.6641 37.4974C16.6641 36.3468 17.5968 35.4141 18.7474 35.4141H31.2474C32.398 35.4141 33.3307 36.3468 33.3307 37.4974V37.4974C33.3307 39.7986 31.4652 41.6641 29.1641 41.6641H20.8307C18.5295 41.6641 16.6641 39.7986 16.6641 37.4974V37.4974Z" fill="#9E4D4D"/>
<ellipse cx="13.5462" cy="31.2526" rx="5.20833" ry="4.16667" fill="#BD3D3D" fill-opacity="0.7"/>
<ellipse cx="36.4603" cy="31.2526" rx="5.20833" ry="4.16667" fill="#BD3D3D" fill-opacity="0.7"/>
</svg>
